<?xml version="1.0" encoding="UTF-8" standalone="no"?>
<!DOCTYPE svg PUBLIC "-//W3C//DTD SVG 1.1//EN" "http://www.w3.org/Graphics/SVG/1.1/DTD/svg11.dtd">
<svg width="100%" height="100%" viewBox="0 0 400 400" version="1.1" xmlns="http://www.w3.org/2000/svg" xmlns:xlink="http://www.w3.org/1999/xlink" xml:space="preserve" xmlns:serif="http://www.serif.com/" style="fill-rule:evenodd;clip-rule:evenodd;stroke-linejoin:round;stroke-miterlimit:2;">
    <g transform="matrix(0.703771,0,0,0.703771,12,78.6667)">
        <path d="M30.313,0C47.043,0 60.626,13.583 60.626,30.313C60.626,47.043 47.043,60.626 30.313,60.626C13.583,60.626 0,47.043 0,30.313C0,13.583 13.583,0 30.313,0ZM30.313,5.684C43.906,5.684 54.942,16.72 54.942,30.313C54.942,43.906 43.906,54.942 30.313,54.942C16.72,54.942 5.684,43.906 5.684,30.313C5.684,16.72 16.72,5.684 30.313,5.684Z" style="fill:rgb(247,87,6);"/>
    </g>
    <g transform="matrix(0.703771,0,0,0.703771,145.333,78.6667)">
        <path d="M30.313,0C47.043,0 60.626,13.583 60.626,30.313C60.626,47.043 47.043,60.626 30.313,60.626C13.583,60.626 0,47.043 0,30.313C0,13.583 13.583,0 30.313,0ZM30.313,5.684C43.906,5.684 54.942,16.72 54.942,30.313C54.942,43.906 43.906,54.942 30.313,54.942C16.72,54.942 5.684,43.906 5.684,30.313C5.684,16.72 16.72,5.684 30.313,5.684Z" style="fill:rgb(247,87,6);"/>
    </g>
    <g transform="matrix(0.703771,0,0,0.703771,278.667,78.6667)">
        <path d="M30.313,0C47.043,0 60.626,13.583 60.626,30.313C60.626,47.043 47.043,60.626 30.313,60.626C13.583,60.626 0,47.043 0,30.313C0,13.583 13.583,0 30.313,0ZM30.313,5.684C43.906,5.684 54.942,16.72 54.942,30.313C54.942,43.906 43.906,54.942 30.313,54.942C16.72,54.942 5.684,43.906 5.684,30.313C5.684,16.72 16.72,5.684 30.313,5.684Z" style="fill:rgb(247,87,6);"/>
    </g>
    <g transform="matrix(0.703771,0,0,0.703771,78.6667,78.6667)">
        <path d="M30.313,0C47.043,0 60.626,13.583 60.626,30.313C60.626,47.043 47.043,60.626 30.313,60.626C13.583,60.626 0,47.043 0,30.313C0,13.583 13.583,0 30.313,0ZM30.313,5.684C43.906,5.684 54.942,16.72 54.942,30.313C54.942,43.906 43.906,54.942 30.313,54.942C16.72,54.942 5.684,43.906 5.684,30.313C5.684,16.72 16.72,5.684 30.313,5.684Z" style="fill:rgb(247,87,6);"/>
    </g>
    <g transform="matrix(0.703771,0,0,0.703771,212,78.6667)">
        <path d="M30.313,0C47.043,0 60.626,13.583 60.626,30.313C60.626,47.043 47.043,60.626 30.313,60.626C13.583,60.626 0,47.043 0,30.313C0,13.583 13.583,0 30.313,0ZM30.313,5.684C43.906,5.684 54.942,16.72 54.942,30.313C54.942,43.906 43.906,54.942 30.313,54.942C16.72,54.942 5.684,43.906 5.684,30.313C5.684,16.72 16.72,5.684 30.313,5.684Z" style="fill:rgb(247,87,6);"/>
    </g>
    <g transform="matrix(0.703771,0,0,0.703771,345.333,78.6667)">
        <path d="M30.313,0C47.043,0 60.626,13.583 60.626,30.313C60.626,47.043 47.043,60.626 30.313,60.626C13.583,60.626 0,47.043 0,30.313C0,13.583 13.583,0 30.313,0ZM30.313,5.684C43.906,5.684 54.942,16.72 54.942,30.313C54.942,43.906 43.906,54.942 30.313,54.942C16.72,54.942 5.684,43.906 5.684,30.313C5.684,16.72 16.72,5.684 30.313,5.684Z" style="fill:rgb(247,87,6);"/>
    </g>
    <g transform="matrix(0.703771,0,0,0.703771,12,12)">
        <path d="M30.313,0C47.043,0 60.626,13.583 60.626,30.313C60.626,47.043 47.043,60.626 30.313,60.626C13.583,60.626 0,47.043 0,30.313C0,13.583 13.583,0 30.313,0ZM30.313,5.684C43.906,5.684 54.942,16.72 54.942,30.313C54.942,43.906 43.906,54.942 30.313,54.942C16.72,54.942 5.684,43.906 5.684,30.313C5.684,16.72 16.72,5.684 30.313,5.684Z" style="fill:rgb(247,87,6);"/>
    </g>
    <g transform="matrix(0.703771,0,0,0.703771,145.333,12)">
        <path d="M30.313,0C47.043,0 60.626,13.583 60.626,30.313C60.626,47.043 47.043,60.626 30.313,60.626C13.583,60.626 0,47.043 0,30.313C0,13.583 13.583,0 30.313,0ZM30.313,5.684C43.906,5.684 54.942,16.72 54.942,30.313C54.942,43.906 43.906,54.942 30.313,54.942C16.72,54.942 5.684,43.906 5.684,30.313C5.684,16.72 16.72,5.684 30.313,5.684Z" style="fill:rgb(247,87,6);"/>
    </g>
    <g transform="matrix(0.703771,0,0,0.703771,278.667,12)">
        <path d="M30.313,0C47.043,0 60.626,13.583 60.626,30.313C60.626,47.043 47.043,60.626 30.313,60.626C13.583,60.626 0,47.043 0,30.313C0,13.583 13.583,0 30.313,0ZM30.313,5.684C43.906,5.684 54.942,16.72 54.942,30.313C54.942,43.906 43.906,54.942 30.313,54.942C16.72,54.942 5.684,43.906 5.684,30.313C5.684,16.72 16.72,5.684 30.313,5.684Z" style="fill:rgb(247,87,6);"/>
    </g>
    <g transform="matrix(0.703771,0,0,0.703771,78.6667,12)">
        <path d="M30.313,0C47.043,0 60.626,13.583 60.626,30.313C60.626,47.043 47.043,60.626 30.313,60.626C13.583,60.626 0,47.043 0,30.313C0,13.583 13.583,0 30.313,0ZM30.313,5.684C43.906,5.684 54.942,16.72 54.942,30.313C54.942,43.906 43.906,54.942 30.313,54.942C16.72,54.942 5.684,43.906 5.684,30.313C5.684,16.72 16.72,5.684 30.313,5.684Z" style="fill:rgb(247,87,6);"/>
    </g>
    <g transform="matrix(0.703771,0,0,0.703771,212,12)">
        <path d="M30.313,0C47.043,0 60.626,13.583 60.626,30.313C60.626,47.043 47.043,60.626 30.313,60.626C13.583,60.626 0,47.043 0,30.313C0,13.583 13.583,0 30.313,0ZM30.313,5.684C43.906,5.684 54.942,16.72 54.942,30.313C54.942,43.906 43.906,54.942 30.313,54.942C16.72,54.942 5.684,43.906 5.684,30.313C5.684,16.72 16.72,5.684 30.313,5.684Z" style="fill:rgb(247,87,6);"/>
    </g>
    <g transform="matrix(0.703771,0,0,0.703771,345.333,12)">
        <path d="M30.313,0C47.043,0 60.626,13.583 60.626,30.313C60.626,47.043 47.043,60.626 30.313,60.626C13.583,60.626 0,47.043 0,30.313C0,13.583 13.583,0 30.313,0ZM30.313,5.684C43.906,5.684 54.942,16.72 54.942,30.313C54.942,43.906 43.906,54.942 30.313,54.942C16.72,54.942 5.684,43.906 5.684,30.313C5.684,16.72 16.72,5.684 30.313,5.684Z" style="fill:rgb(247,87,6);"/>
    </g>
    <g transform="matrix(0.703771,0,0,0.703771,12,145.333)">
        <path d="M30.313,0C47.043,0 60.626,13.583 60.626,30.313C60.626,47.043 47.043,60.626 30.313,60.626C13.583,60.626 0,47.043 0,30.313C0,13.583 13.583,0 30.313,0ZM30.313,5.684C43.906,5.684 54.942,16.72 54.942,30.313C54.942,43.906 43.906,54.942 30.313,54.942C16.72,54.942 5.684,43.906 5.684,30.313C5.684,16.72 16.72,5.684 30.313,5.684Z" style="fill:rgb(247,87,6);"/>
    </g>
    <g transform="matrix(0.703771,0,0,0.703771,145.333,145.333)">
        <path d="M30.313,0C47.043,0 60.626,13.583 60.626,30.313C60.626,47.043 47.043,60.626 30.313,60.626C13.583,60.626 0,47.043 0,30.313C0,13.583 13.583,0 30.313,0ZM30.313,5.684C43.906,5.684 54.942,16.72 54.942,30.313C54.942,43.906 43.906,54.942 30.313,54.942C16.72,54.942 5.684,43.906 5.684,30.313C5.684,16.72 16.72,5.684 30.313,5.684Z" style="fill:rgb(247,87,6);"/>
    </g>
    <g transform="matrix(0.703771,0,0,0.703771,278.667,145.333)">
        <path d="M30.313,0C47.043,0 60.626,13.583 60.626,30.313C60.626,47.043 47.043,60.626 30.313,60.626C13.583,60.626 0,47.043 0,30.313C0,13.583 13.583,0 30.313,0ZM30.313,5.684C43.906,5.684 54.942,16.72 54.942,30.313C54.942,43.906 43.906,54.942 30.313,54.942C16.72,54.942 5.684,43.906 5.684,30.313C5.684,16.72 16.72,5.684 30.313,5.684Z" style="fill:rgb(247,87,6);"/>
    </g>
    <g transform="matrix(0.703771,0,0,0.703771,78.6667,145.333)">
        <path d="M30.313,0C47.043,0 60.626,13.583 60.626,30.313C60.626,47.043 47.043,60.626 30.313,60.626C13.583,60.626 0,47.043 0,30.313C0,13.583 13.583,0 30.313,0ZM30.313,5.684C43.906,5.684 54.942,16.72 54.942,30.313C54.942,43.906 43.906,54.942 30.313,54.942C16.72,54.942 5.684,43.906 5.684,30.313C5.684,16.72 16.72,5.684 30.313,5.684Z" style="fill:rgb(247,87,6);"/>
    </g>
    <g transform="matrix(0.703771,0,0,0.703771,212,145.333)">
        <path d="M30.313,0C47.043,0 60.626,13.583 60.626,30.313C60.626,47.043 47.043,60.626 30.313,60.626C13.583,60.626 0,47.043 0,30.313C0,13.583 13.583,0 30.313,0ZM30.313,5.684C43.906,5.684 54.942,16.72 54.942,30.313C54.942,43.906 43.906,54.942 30.313,54.942C16.72,54.942 5.684,43.906 5.684,30.313C5.684,16.72 16.72,5.684 30.313,5.684Z" style="fill:rgb(247,87,6);"/>
    </g>
    <g transform="matrix(0.703771,0,0,0.703771,345.333,145.333)">
        <path d="M30.313,0C47.043,0 60.626,13.583 60.626,30.313C60.626,47.043 47.043,60.626 30.313,60.626C13.583,60.626 0,47.043 0,30.313C0,13.583 13.583,0 30.313,0ZM30.313,5.684C43.906,5.684 54.942,16.72 54.942,30.313C54.942,43.906 43.906,54.942 30.313,54.942C16.72,54.942 5.684,43.906 5.684,30.313C5.684,16.72 16.72,5.684 30.313,5.684Z" style="fill:rgb(247,87,6);"/>
    </g>
    <g transform="matrix(0.703771,0,0,0.703771,12,212)">
        <path d="M30.313,0C47.043,0 60.626,13.583 60.626,30.313C60.626,47.043 47.043,60.626 30.313,60.626C13.583,60.626 0,47.043 0,30.313C0,13.583 13.583,0 30.313,0ZM30.313,5.684C43.906,5.684 54.942,16.72 54.942,30.313C54.942,43.906 43.906,54.942 30.313,54.942C16.72,54.942 5.684,43.906 5.684,30.313C5.684,16.72 16.72,5.684 30.313,5.684Z" style="fill:rgb(247,87,6);"/>
    </g>
    <g transform="matrix(0.703771,0,0,0.703771,145.333,212)">
        <path d="M30.313,0C47.043,0 60.626,13.583 60.626,30.313C60.626,47.043 47.043,60.626 30.313,60.626C13.583,60.626 0,47.043 0,30.313C0,13.583 13.583,0 30.313,0ZM30.313,5.684C43.906,5.684 54.942,16.72 54.942,30.313C54.942,43.906 43.906,54.942 30.313,54.942C16.72,54.942 5.684,43.906 5.684,30.313C5.684,16.72 16.72,5.684 30.313,5.684Z" style="fill:rgb(247,87,6);"/>
    </g>
    <g transform="matrix(0.703771,0,0,0.703771,278.667,212)">
        <path d="M30.313,0C47.043,0 60.626,13.583 60.626,30.313C60.626,47.043 47.043,60.626 30.313,60.626C13.583,60.626 0,47.043 0,30.313C0,13.583 13.583,0 30.313,0ZM30.313,5.684C43.906,5.684 54.942,16.72 54.942,30.313C54.942,43.906 43.906,54.942 30.313,54.942C16.72,54.942 5.684,43.906 5.684,30.313C5.684,16.72 16.72,5.684 30.313,5.684Z" style="fill:rgb(247,87,6);"/>
    </g>
    <g transform="matrix(0.703771,0,0,0.703771,78.6667,212)">
        <path d="M30.313,0C47.043,0 60.626,13.583 60.626,30.313C60.626,47.043 47.043,60.626 30.313,60.626C13.583,60.626 0,47.043 0,30.313C0,13.583 13.583,0 30.313,0ZM30.313,5.684C43.906,5.684 54.942,16.72 54.942,30.313C54.942,43.906 43.906,54.942 30.313,54.942C16.72,54.942 5.684,43.906 5.684,30.313C5.684,16.72 16.72,5.684 30.313,5.684Z" style="fill:rgb(247,87,6);"/>
    </g>
    <g transform="matrix(0.703771,0,0,0.703771,212,212)">
        <path d="M30.313,0C47.043,0 60.626,13.583 60.626,30.313C60.626,47.043 47.043,60.626 30.313,60.626C13.583,60.626 0,47.043 0,30.313C0,13.583 13.583,0 30.313,0ZM30.313,5.684C43.906,5.684 54.942,16.72 54.942,30.313C54.942,43.906 43.906,54.942 30.313,54.942C16.72,54.942 5.684,43.906 5.684,30.313C5.684,16.72 16.72,5.684 30.313,5.684Z" style="fill:rgb(247,87,6);"/>
    </g>
    <g transform="matrix(0.703771,0,0,0.703771,345.333,212)">
        <path d="M30.313,0C47.043,0 60.626,13.583 60.626,30.313C60.626,47.043 47.043,60.626 30.313,60.626C13.583,60.626 0,47.043 0,30.313C0,13.583 13.583,0 30.313,0ZM30.313,5.684C43.906,5.684 54.942,16.72 54.942,30.313C54.942,43.906 43.906,54.942 30.313,54.942C16.72,54.942 5.684,43.906 5.684,30.313C5.684,16.72 16.72,5.684 30.313,5.684Z" style="fill:rgb(247,87,6);"/>
    </g>
    <g transform="matrix(0.703771,0,0,0.703771,12,278.667)">
        <path d="M30.313,0C47.043,0 60.626,13.583 60.626,30.313C60.626,47.043 47.043,60.626 30.313,60.626C13.583,60.626 0,47.043 0,30.313C0,13.583 13.583,0 30.313,0ZM30.313,5.684C43.906,5.684 54.942,16.72 54.942,30.313C54.942,43.906 43.906,54.942 30.313,54.942C16.72,54.942 5.684,43.906 5.684,30.313C5.684,16.72 16.72,5.684 30.313,5.684Z" style="fill:rgb(247,87,6);"/>
    </g>
    <g transform="matrix(0.703771,0,0,0.703771,145.333,278.667)">
        <path d="M30.313,0C47.043,0 60.626,13.583 60.626,30.313C60.626,47.043 47.043,60.626 30.313,60.626C13.583,60.626 0,47.043 0,30.313C0,13.583 13.583,0 30.313,0ZM30.313,5.684C43.906,5.684 54.942,16.72 54.942,30.313C54.942,43.906 43.906,54.942 30.313,54.942C16.72,54.942 5.684,43.906 5.684,30.313C5.684,16.72 16.72,5.684 30.313,5.684Z" style="fill:rgb(247,87,6);"/>
    </g>
    <g transform="matrix(0.703771,0,0,0.703771,278.667,278.667)">
        <path d="M30.313,0C47.043,0 60.626,13.583 60.626,30.313C60.626,47.043 47.043,60.626 30.313,60.626C13.583,60.626 0,47.043 0,30.313C0,13.583 13.583,0 30.313,0ZM30.313,5.684C43.906,5.684 54.942,16.72 54.942,30.313C54.942,43.906 43.906,54.942 30.313,54.942C16.72,54.942 5.684,43.906 5.684,30.313C5.684,16.72 16.72,5.684 30.313,5.684Z" style="fill:rgb(247,87,6);"/>
    </g>
    <g transform="matrix(0.703771,0,0,0.703771,78.6667,278.667)">
        <path d="M30.313,0C47.043,0 60.626,13.583 60.626,30.313C60.626,47.043 47.043,60.626 30.313,60.626C13.583,60.626 0,47.043 0,30.313C0,13.583 13.583,0 30.313,0ZM30.313,5.684C43.906,5.684 54.942,16.72 54.942,30.313C54.942,43.906 43.906,54.942 30.313,54.942C16.72,54.942 5.684,43.906 5.684,30.313C5.684,16.72 16.72,5.684 30.313,5.684Z" style="fill:rgb(247,87,6);"/>
    </g>
    <g transform="matrix(0.703771,0,0,0.703771,212,278.667)">
        <path d="M30.313,0C47.043,0 60.626,13.583 60.626,30.313C60.626,47.043 47.043,60.626 30.313,60.626C13.583,60.626 0,47.043 0,30.313C0,13.583 13.583,0 30.313,0ZM30.313,5.684C43.906,5.684 54.942,16.72 54.942,30.313C54.942,43.906 43.906,54.942 30.313,54.942C16.72,54.942 5.684,43.906 5.684,30.313C5.684,16.72 16.72,5.684 30.313,5.684Z" style="fill:rgb(247,87,6);"/>
    </g>
    <g transform="matrix(0.703771,0,0,0.703771,345.333,278.667)">
        <path d="M30.313,0C47.043,0 60.626,13.583 60.626,30.313C60.626,47.043 47.043,60.626 30.313,60.626C13.583,60.626 0,47.043 0,30.313C0,13.583 13.583,0 30.313,0ZM30.313,5.684C43.906,5.684 54.942,16.72 54.942,30.313C54.942,43.906 43.906,54.942 30.313,54.942C16.72,54.942 5.684,43.906 5.684,30.313C5.684,16.72 16.72,5.684 30.313,5.684Z" style="fill:rgb(247,87,6);"/>
    </g>
    <g transform="matrix(0.703771,0,0,0.703771,12,345.333)">
        <path d="M30.313,0C47.043,0 60.626,13.583 60.626,30.313C60.626,47.043 47.043,60.626 30.313,60.626C13.583,60.626 0,47.043 0,30.313C0,13.583 13.583,0 30.313,0ZM30.313,5.684C43.906,5.684 54.942,16.72 54.942,30.313C54.942,43.906 43.906,54.942 30.313,54.942C16.72,54.942 5.684,43.906 5.684,30.313C5.684,16.72 16.72,5.684 30.313,5.684Z" style="fill:rgb(247,87,6);"/>
    </g>
    <g transform="matrix(0.703771,0,0,0.703771,145.333,345.333)">
        <path d="M30.313,0C47.043,0 60.626,13.583 60.626,30.313C60.626,47.043 47.043,60.626 30.313,60.626C13.583,60.626 0,47.043 0,30.313C0,13.583 13.583,0 30.313,0ZM30.313,5.684C43.906,5.684 54.942,16.72 54.942,30.313C54.942,43.906 43.906,54.942 30.313,54.942C16.72,54.942 5.684,43.906 5.684,30.313C5.684,16.72 16.72,5.684 30.313,5.684Z" style="fill:rgb(247,87,6);"/>
    </g>
    <g transform="matrix(0.703771,0,0,0.703771,278.667,345.333)">
        <path d="M30.313,0C47.043,0 60.626,13.583 60.626,30.313C60.626,47.043 47.043,60.626 30.313,60.626C13.583,60.626 0,47.043 0,30.313C0,13.583 13.583,0 30.313,0ZM30.313,5.684C43.906,5.684 54.942,16.72 54.942,30.313C54.942,43.906 43.906,54.942 30.313,54.942C16.72,54.942 5.684,43.906 5.684,30.313C5.684,16.72 16.72,5.684 30.313,5.684Z" style="fill:rgb(247,87,6);"/>
    </g>
    <g transform="matrix(0.703771,0,0,0.703771,78.6667,345.333)">
        <path d="M30.313,0C47.043,0 60.626,13.583 60.626,30.313C60.626,47.043 47.043,60.626 30.313,60.626C13.583,60.626 0,47.043 0,30.313C0,13.583 13.583,0 30.313,0ZM30.313,5.684C43.906,5.684 54.942,16.72 54.942,30.313C54.942,43.906 43.906,54.942 30.313,54.942C16.72,54.942 5.684,43.906 5.684,30.313C5.684,16.72 16.72,5.684 30.313,5.684Z" style="fill:rgb(247,87,6);"/>
    </g>
    <g transform="matrix(0.703771,0,0,0.703771,212,345.333)">
        <path d="M30.313,0C47.043,0 60.626,13.583 60.626,30.313C60.626,47.043 47.043,60.626 30.313,60.626C13.583,60.626 0,47.043 0,30.313C0,13.583 13.583,0 30.313,0ZM30.313,5.684C43.906,5.684 54.942,16.72 54.942,30.313C54.942,43.906 43.906,54.942 30.313,54.942C16.72,54.942 5.684,43.906 5.684,30.313C5.684,16.72 16.72,5.684 30.313,5.684Z" style="fill:rgb(247,87,6);"/>
    </g>
    <g transform="matrix(0.703771,0,0,0.703771,345.333,345.333)">
        <path d="M30.313,0C47.043,0 60.626,13.583 60.626,30.313C60.626,47.043 47.043,60.626 30.313,60.626C13.583,60.626 0,47.043 0,30.313C0,13.583 13.583,0 30.313,0ZM30.313,5.684C43.906,5.684 54.942,16.72 54.942,30.313C54.942,43.906 43.906,54.942 30.313,54.942C16.72,54.942 5.684,43.906 5.684,30.313C5.684,16.72 16.72,5.684 30.313,5.684Z" style="fill:rgb(247,87,6);"/>
    </g>
</svg>
