<?xml version="1.0" standalone="no"?>
<svg xmlns:xlink="http://www.w3.org/1999/xlink" id="wave" style="transform:rotate(0deg); transition: 0.3s" viewBox="0 0 1440 490" version="1.1" xmlns="http://www.w3.org/2000/svg"><defs><linearGradient id="sw-gradient-0" x1="0" x2="0" y1="1" y2="0"><stop stop-color="rgba(110.922, 62, 243, 1)" offset="0%"/><stop stop-color="rgba(11, 44.234, 255, 1)" offset="100%"/></linearGradient></defs><path style="transform:translate(0, 0px); opacity:1" fill="url(#sw-gradient-0)" d="M0,147L40,147C80,147,160,147,240,187.8C320,229,400,310,480,302.2C560,294,640,196,720,187.8C800,180,880,261,960,245C1040,229,1120,114,1200,81.7C1280,49,1360,98,1440,114.3C1520,131,1600,114,1680,122.5C1760,131,1840,163,1920,155.2C2000,147,2080,98,2160,122.5C2240,147,2320,245,2400,261.3C2480,278,2560,212,2640,220.5C2720,229,2800,310,2880,334.8C2960,359,3040,327,3120,310.3C3200,294,3280,294,3360,318.5C3440,343,3520,392,3600,383.8C3680,376,3760,310,3840,253.2C3920,196,4000,147,4080,114.3C4160,82,4240,65,4320,49C4400,33,4480,16,4560,24.5C4640,33,4720,65,4800,130.7C4880,196,4960,294,5040,318.5C5120,343,5200,294,5280,294C5360,294,5440,343,5520,375.7C5600,408,5680,425,5720,432.8L5760,441L5760,490L5720,490C5680,490,5600,490,5520,490C5440,490,5360,490,5280,490C5200,490,5120,490,5040,490C4960,490,4880,490,4800,490C4720,490,4640,490,4560,490C4480,490,4400,490,4320,490C4240,490,4160,490,4080,490C4000,490,3920,490,3840,490C3760,490,3680,490,3600,490C3520,490,3440,490,3360,490C3280,490,3200,490,3120,490C3040,490,2960,490,2880,490C2800,490,2720,490,2640,490C2560,490,2480,490,2400,490C2320,490,2240,490,2160,490C2080,490,2000,490,1920,490C1840,490,1760,490,1680,490C1600,490,1520,490,1440,490C1360,490,1280,490,1200,490C1120,490,1040,490,960,490C880,490,800,490,720,490C640,490,560,490,480,490C400,490,320,490,240,490C160,490,80,490,40,490L0,490Z"/><defs><linearGradient id="sw-gradient-1" x1="0" x2="0" y1="1" y2="0"><stop stop-color="rgba(62, 74.39, 243, 1)" offset="0%"/><stop stop-color="rgba(27.359, 11, 255, 1)" offset="100%"/></linearGradient></defs><path style="transform:translate(0, 50px); opacity:0.9" fill="url(#sw-gradient-1)" d="M0,294L40,302.2C80,310,160,327,240,343C320,359,400,376,480,359.3C560,343,640,294,720,245C800,196,880,147,960,171.5C1040,196,1120,294,1200,277.7C1280,261,1360,131,1440,122.5C1520,114,1600,229,1680,228.7C1760,229,1840,114,1920,57.2C2000,0,2080,0,2160,8.2C2240,16,2320,33,2400,89.8C2480,147,2560,245,2640,245C2720,245,2800,147,2880,138.8C2960,131,3040,212,3120,228.7C3200,245,3280,196,3360,187.8C3440,180,3520,212,3600,204.2C3680,196,3760,147,3840,114.3C3920,82,4000,65,4080,57.2C4160,49,4240,49,4320,40.8C4400,33,4480,16,4560,49C4640,82,4720,163,4800,236.8C4880,310,4960,376,5040,375.7C5120,376,5200,310,5280,277.7C5360,245,5440,245,5520,220.5C5600,196,5680,147,5720,122.5L5760,98L5760,490L5720,490C5680,490,5600,490,5520,490C5440,490,5360,490,5280,490C5200,490,5120,490,5040,490C4960,490,4880,490,4800,490C4720,490,4640,490,4560,490C4480,490,4400,490,4320,490C4240,490,4160,490,4080,490C4000,490,3920,490,3840,490C3760,490,3680,490,3600,490C3520,490,3440,490,3360,490C3280,490,3200,490,3120,490C3040,490,2960,490,2880,490C2800,490,2720,490,2640,490C2560,490,2480,490,2400,490C2320,490,2240,490,2160,490C2080,490,2000,490,1920,490C1840,490,1760,490,1680,490C1600,490,1520,490,1440,490C1360,490,1280,490,1200,490C1120,490,1040,490,960,490C880,490,800,490,720,490C640,490,560,490,480,490C400,490,320,490,240,490C160,490,80,490,40,490L0,490Z"/><defs><linearGradient id="sw-gradient-2" x1="0" x2="0" y1="1" y2="0"><stop stop-color="rgba(202.891, 62, 243, 1)" offset="0%"/><stop stop-color="rgba(43.889, 11, 255, 1)" offset="100%"/></linearGradient></defs><path style="transform:translate(0, 100px); opacity:0.8" fill="url(#sw-gradient-2)" d="M0,0L40,40.8C80,82,160,163,240,212.3C320,261,400,278,480,253.2C560,229,640,163,720,147C800,131,880,163,960,171.5C1040,180,1120,163,1200,147C1280,131,1360,114,1440,122.5C1520,131,1600,163,1680,196C1760,229,1840,261,1920,302.2C2000,343,2080,392,2160,359.3C2240,327,2320,212,2400,155.2C2480,98,2560,98,2640,147C2720,196,2800,294,2880,285.8C2960,278,3040,163,3120,155.2C3200,147,3280,245,3360,269.5C3440,294,3520,245,3600,220.5C3680,196,3760,196,3840,236.8C3920,278,4000,359,4080,367.5C4160,376,4240,310,4320,302.2C4400,294,4480,343,4560,326.7C4640,310,4720,229,4800,204.2C4880,180,4960,212,5040,204.2C5120,196,5200,147,5280,130.7C5360,114,5440,131,5520,171.5C5600,212,5680,278,5720,310.3L5760,343L5760,490L5720,490C5680,490,5600,490,5520,490C5440,490,5360,490,5280,490C5200,490,5120,490,5040,490C4960,490,4880,490,4800,490C4720,490,4640,490,4560,490C4480,490,4400,490,4320,490C4240,490,4160,490,4080,490C4000,490,3920,490,3840,490C3760,490,3680,490,3600,490C3520,490,3440,490,3360,490C3280,490,3200,490,3120,490C3040,490,2960,490,2880,490C2800,490,2720,490,2640,490C2560,490,2480,490,2400,490C2320,490,2240,490,2160,490C2080,490,2000,490,1920,490C1840,490,1760,490,1680,490C1600,490,1520,490,1440,490C1360,490,1280,490,1200,490C1120,490,1040,490,960,490C880,490,800,490,720,490C640,490,560,490,480,490C400,490,320,490,240,490C160,490,80,490,40,490L0,490Z"/><defs><linearGradient id="sw-gradient-3" x1="0" x2="0" y1="1" y2="0"><stop stop-color="rgba(68.004, 62, 243, 1)" offset="0%"/><stop stop-color="rgba(11, 209.541, 255, 1)" offset="100%"/></linearGradient></defs><path style="transform:translate(0, 150px); opacity:0.7" fill="url(#sw-gradient-3)" d="M0,147L40,130.7C80,114,160,82,240,81.7C320,82,400,114,480,130.7C560,147,640,147,720,187.8C800,229,880,310,960,351.2C1040,392,1120,392,1200,375.7C1280,359,1360,327,1440,326.7C1520,327,1600,359,1680,343C1760,327,1840,261,1920,196C2000,131,2080,65,2160,89.8C2240,114,2320,229,2400,228.7C2480,229,2560,114,2640,89.8C2720,65,2800,131,2880,163.3C2960,196,3040,196,3120,204.2C3200,212,3280,229,3360,204.2C3440,180,3520,114,3600,89.8C3680,65,3760,82,3840,98C3920,114,4000,131,4080,187.8C4160,245,4240,343,4320,383.8C4400,425,4480,408,4560,343C4640,278,4720,163,4800,106.2C4880,49,4960,49,5040,57.2C5120,65,5200,82,5280,98C5360,114,5440,131,5520,187.8C5600,245,5680,343,5720,392L5760,441L5760,490L5720,490C5680,490,5600,490,5520,490C5440,490,5360,490,5280,490C5200,490,5120,490,5040,490C4960,490,4880,490,4800,490C4720,490,4640,490,4560,490C4480,490,4400,490,4320,490C4240,490,4160,490,4080,490C4000,490,3920,490,3840,490C3760,490,3680,490,3600,490C3520,490,3440,490,3360,490C3280,490,3200,490,3120,490C3040,490,2960,490,2880,490C2800,490,2720,490,2640,490C2560,490,2480,490,2400,490C2320,490,2240,490,2160,490C2080,490,2000,490,1920,490C1840,490,1760,490,1680,490C1600,490,1520,490,1440,490C1360,490,1280,490,1200,490C1120,490,1040,490,960,490C880,490,800,490,720,490C640,490,560,490,480,490C400,490,320,490,240,490C160,490,80,490,40,490L0,490Z"/></svg>